<svg xmlns="http://www.w3.org/2000/svg" viewBox="0 0 100 100">
  <circle cx="50" cy="50" r="45" fill="#5AA8E5" stroke="#1F6FB8" stroke-width="2"/>
  <!-- 대륙 모양 -->
  <path d="M 30 35 Q 35 30, 40 35 Q 45 40, 50 38 Q 55 40, 60 35 Q 65 30, 70 35 Q 68 45, 65 50 Q 60 55, 55 52 Q 50 55, 45 52 Q 40 55, 35 50 Q 32 45, 30 35 Z" fill="#22c55e" opacity="0.9"/>
  <path d="M 25 55 Q 30 50, 35 55 Q 40 60, 45 58 Q 50 60, 55 58 Q 60 60, 65 55 Q 70 50, 75 55 Q 73 65, 68 70 Q 63 75, 58 72 Q 53 75, 48 72 Q 43 75, 38 72 Q 33 75, 28 70 Q 25 65, 25 55 Z" fill="#22c55e" opacity="0.9"/>
  <path d="M 20 25 Q 25 20, 30 25 Q 28 35, 25 40 Q 20 35, 20 25 Z" fill="#22c55e" opacity="0.9"/>
  <path d="M 70 25 Q 75 20, 80 25 Q 78 35, 75 40 Q 70 35, 70 25 Z" fill="#22c55e" opacity="0.9"/>
</svg>

