<svg xmlns="http://www.w3.org/2000/svg" viewBox="0 0 32 32">
  <defs>
    <radialGradient id="g" cx="40%" cy="35%" r="55%">
      <stop offset="0%" stop-color="#7DD3FC"/>
      <stop offset="100%" stop-color="#1D4ED8"/>
    </radialGradient>
    <radialGradient id="s" cx="30%" cy="30%" r="65%">
      <stop offset="0%" stop-color="white" stop-opacity="0.3"/>
      <stop offset="100%" stop-color="white" stop-opacity="0"/>
    </radialGradient>
  </defs>
  <circle cx="16" cy="16" r="15" fill="url(#g)"/>
  <!-- Americas -->
  <path d="M10 6Q11 5 12 6L11 9Q10 10 10 12L8 14Q7 13 7 11L8 8Q9 7 10 6Z" fill="#34D399"/>
  <path d="M9 15Q10 14 11 15L12 18Q12 20 11 22L9 24Q8 23 7 21L7 18Q8 16 9 15Z" fill="#34D399"/>
  <!-- Europe/Africa -->
  <path d="M17 7Q18 6 19 7L20 9Q20 10 19 11L17 12Q16 11 16 9L17 7Z" fill="#34D399"/>
  <path d="M17 14Q18 13 20 14L21 17Q21 20 20 22L18 25Q17 24 16 22L16 18Q16 15 17 14Z" fill="#34D399"/>
  <!-- Asia -->
  <path d="M22 8Q24 7 25 9L25 12Q25 14 23 15L21 14Q20 12 21 10L22 8Z" fill="#34D399"/>
  <path d="M23 16Q24 15 25 17L24 19Q23 20 22 19L22 17Q22 16 23 16Z" fill="#34D399"/>
  <!-- Shine -->
  <circle cx="16" cy="16" r="15" fill="url(#s)"/>
  <!-- Subtle outline -->
  <circle cx="16" cy="16" r="15" fill="none" stroke="#1E40AF" stroke-width="0.5" opacity="0.4"/>
</svg>
